<?xml version="1.0" standalone="no"?>
<!DOCTYPE svg PUBLIC "-//W3C//DTD SVG 20010904//EN"
 "http://www.w3.org/TR/2001/REC-SVG-20010904/DTD/svg10.dtd">
<svg version="1.0" xmlns="http://www.w3.org/2000/svg"
 width="1628.000000pt" height="1628.000000pt" viewBox="0 0 1628.000000 1628.000000"
 preserveAspectRatio="xMidYMid meet">
<metadata>
Created by potrace 1.11, written by Peter Selinger 2001-2013
</metadata>
<g transform="translate(0.000000,1628.000000) scale(0.100000,-0.100000)"
fill="#000000" stroke="none">
<path d="M7214 12143 c-43 -48 -88 -97 -99 -109 -11 -12 -56 -61 -100 -110
-44 -48 -87 -95 -95 -104 -18 -19 -198 -216 -255 -279 -22 -24 -49 -54 -60
-65 -11 -12 -58 -64 -105 -116 -47 -52 -96 -107 -110 -121 -29 -31 -174 -189
-198 -217 -10 -11 -60 -66 -112 -123 -88 -96 -182 -199 -205 -224 -63 -71
-175 -194 -195 -214 -14 -15 -68 -74 -120 -131 -52 -58 -101 -112 -110 -121
-8 -8 -55 -60 -105 -114 -49 -53 -125 -134 -169 -179 -43 -44 -176 -182 -295
-305 -119 -123 -243 -251 -276 -285 -33 -35 -134 -139 -225 -233 -340 -351
-631 -651 -705 -728 -43 -44 -166 -171 -274 -283 -363 -376 -420 -436 -418
-438 2 -2 143 -23 267 -40 58 -8 74 -11 103 -25 39 -18 33 -25 -20 -23 -27 2
-133 5 -238 9 l-190 6 -90 -94 c-49 -52 -193 -202 -320 -332 -249 -257 -247
-255 -600 -620 -132 -136 -269 -278 -305 -315 -36 -36 -76 -78 -89 -93 l-24
-26 36 -69 36 -68 -72 -26 c-40 -15 -108 -39 -152 -53 l-80 -27 -160 -163
c-138 -140 -485 -496 -700 -720 -37 -38 -137 -141 -221 -228 -84 -87 -156
-162 -159 -167 -3 -5 3 -9 12 -8 23 1 305 -11 403 -17 41 -2 143 -7 225 -10
83 -3 193 -8 245 -10 52 -2 160 -7 240 -10 146 -6 254 -10 455 -20 61 -2 173
-7 250 -10 77 -3 181 -8 230 -10 152 -7 347 -16 700 -30 77 -3 174 -8 215 -10
41 -2 152 -6 245 -10 94 -3 202 -8 240 -10 39 -3 135 -7 215 -10 168 -6 307
-12 475 -20 192 -9 330 -15 475 -20 75 -3 178 -7 230 -10 52 -2 163 -7 245
-10 83 -3 191 -8 240 -10 50 -3 145 -7 212 -10 67 -2 173 -7 235 -9 62 -3 174
-8 248 -11 74 -3 180 -8 235 -10 182 -8 348 -15 475 -20 69 -3 170 -7 225 -10
55 -3 161 -7 235 -10 74 -3 176 -7 225 -10 50 -2 162 -6 250 -10 88 -3 193 -8
234 -10 41 -2 138 -7 215 -10 78 -3 186 -8 241 -10 55 -3 154 -7 220 -10 66
-2 181 -7 255 -10 188 -9 304 -14 455 -20 72 -3 182 -8 245 -10 63 -3 164 -8
225 -10 60 -3 161 -7 225 -10 63 -3 171 -7 240 -10 69 -3 172 -7 230 -9 58 -3
166 -8 240 -11 74 -3 182 -8 240 -10 58 -3 161 -7 230 -10 156 -6 319 -13 475
-20 66 -3 170 -8 230 -11 260 -11 332 -12 370 -4 22 5 56 12 75 15 19 3 90 17
156 31 67 14 134 27 150 30 16 2 49 9 74 14 25 5 56 12 70 14 14 3 50 10 80
16 30 6 69 13 85 15 17 2 48 9 70 14 32 8 274 57 385 78 14 2 102 20 195 38
94 19 181 36 195 39 14 2 36 7 50 10 14 3 36 8 50 10 14 2 72 14 130 25 58 12
116 24 130 26 14 3 36 7 49 10 14 2 93 18 176 35 83 17 162 33 176 35 13 3 60
12 104 21 44 8 89 17 100 19 11 3 124 25 250 51 222 44 248 49 298 58 12 2 33
7 47 10 14 3 36 8 50 10 14 2 36 7 50 10 14 3 36 8 50 10 21 3 562 110 610
120 8 2 48 9 88 16 39 7 72 16 72 20 0 4 -19 23 -42 41 -23 19 -71 58 -107 87
-36 29 -82 66 -102 82 -20 16 -159 129 -310 250 -151 122 -283 229 -294 238
-21 18 -294 238 -640 517 -115 93 -249 201 -296 240 -47 38 -220 178 -384 310
-164 132 -303 245 -309 250 -9 8 -192 153 -205 161 -2 2 -7 24 -12 50 -10 55
35 14 -499 460 -223 186 -414 346 -425 355 -11 10 -83 70 -160 134 -77 65
-160 134 -185 155 -124 104 -187 156 -204 170 -10 8 -23 20 -30 25 -6 6 -65
55 -131 110 -66 55 -142 119 -169 143 -27 23 -56 42 -65 41 -9 -1 -65 -1 -124
0 -106 1 -108 2 -105 23 2 19 13 24 67 35 36 7 66 15 68 16 1 2 -75 68 -170
148 -94 79 -177 148 -183 154 -6 5 -32 28 -59 50 -27 22 -67 56 -90 75 -23 19
-63 54 -91 76 -27 23 -170 144 -319 269 -148 124 -279 234 -290 243 -11 9 -63
53 -115 97 -52 44 -103 87 -113 95 -41 34 -64 54 -112 98 -28 26 -78 70 -110
98 -198 169 -351 302 -905 779 -227 196 -848 731 -880 759 -14 11 -57 48 -95
82 -39 34 -81 70 -94 80 -13 10 -29 24 -36 31 -6 6 -101 88 -210 182 l-198
171 -122 0 -122 0 -79 -87z"/>
</g>
</svg>
